<mxfile host="app.diagrams.net" modified="2020-08-25T11:07:08.659Z" agent="5.0 (Macintosh; Intel Mac OS X 10_15_6) AppleWebKit/537.36 (KHTML, like Gecko) Chrome/84.0.4147.105 Safari/537.36" etag="VUbF7jryTt8mEEvDWqUl" version="13.6.4" type="github">
  <diagram id="TYBfL0nDtS598Hg_CeFJ" name="Page-1">
    <mxGraphModel dx="1298" dy="760" grid="1" gridSize="10" guides="1" tooltips="1" connect="1" arrows="1" fold="1" page="1" pageScale="1" pageWidth="827" pageHeight="1169" math="0" shadow="0">
      <root>
        <mxCell id="0" />
        <mxCell id="1" parent="0" />
        <mxCell id="qgsEmikPOjRhdi7-7S8u-3" style="edgeStyle=orthogonalEdgeStyle;rounded=0;orthogonalLoop=1;jettySize=auto;html=1;entryX=1;entryY=0.25;entryDx=0;entryDy=0;" edge="1" parent="1" source="qgsEmikPOjRhdi7-7S8u-1" target="qgsEmikPOjRhdi7-7S8u-2">
          <mxGeometry relative="1" as="geometry" />
        </mxCell>
        <mxCell id="qgsEmikPOjRhdi7-7S8u-1" value="Role 1:&lt;br&gt;Journalist" style="verticalLabelPosition=middle;verticalAlign=middle;html=1;shape=card;whiteSpace=wrap;size=20;arcSize=12;fillColor=#e1d5e7;strokeColor=#9673a6;labelPosition=center;align=center;" vertex="1" parent="1">
          <mxGeometry x="370" y="100" width="100" height="60" as="geometry" />
        </mxCell>
        <mxCell id="qgsEmikPOjRhdi7-7S8u-2" value="Organizational Unit:&lt;br&gt;Editorial Board" style="rounded=0;whiteSpace=wrap;html=1;" vertex="1" parent="1">
          <mxGeometry x="180" y="190" width="120" height="60" as="geometry" />
        </mxCell>
        <mxCell id="qgsEmikPOjRhdi7-7S8u-5" style="edgeStyle=orthogonalEdgeStyle;rounded=0;orthogonalLoop=1;jettySize=auto;html=1;entryX=1;entryY=0.5;entryDx=0;entryDy=0;" edge="1" parent="1" source="qgsEmikPOjRhdi7-7S8u-4" target="qgsEmikPOjRhdi7-7S8u-2">
          <mxGeometry relative="1" as="geometry" />
        </mxCell>
        <mxCell id="qgsEmikPOjRhdi7-7S8u-7" value="Leads unit" style="edgeLabel;html=1;align=center;verticalAlign=middle;resizable=0;points=[];" vertex="1" connectable="0" parent="qgsEmikPOjRhdi7-7S8u-5">
          <mxGeometry x="-0.175" y="1" relative="1" as="geometry">
            <mxPoint as="offset" />
          </mxGeometry>
        </mxCell>
        <mxCell id="qgsEmikPOjRhdi7-7S8u-4" value="Role 2:&lt;br&gt;Editor in chief" style="verticalLabelPosition=middle;verticalAlign=middle;html=1;shape=card;whiteSpace=wrap;size=20;arcSize=12;fillColor=#e1d5e7;strokeColor=#9673a6;labelPosition=center;align=center;" vertex="1" parent="1">
          <mxGeometry x="460" y="190" width="100" height="60" as="geometry" />
        </mxCell>
        <mxCell id="qgsEmikPOjRhdi7-7S8u-6" value="Role 3:&lt;br&gt;Editor in chief" style="verticalLabelPosition=middle;verticalAlign=middle;html=1;shape=card;whiteSpace=wrap;size=20;arcSize=12;fillColor=#e1d5e7;strokeColor=#9673a6;labelPosition=center;align=center;" vertex="1" parent="1">
          <mxGeometry x="370" y="280" width="100" height="60" as="geometry" />
        </mxCell>
      </root>
    </mxGraphModel>
  </diagram>
</mxfile>
